<svg width="448 " height="512" viewBox="0 0 315  512" fill="none" xmlns="http://www.w3.org/2000/svg">
<!--! Font Awesome Pro 6.2.0 by @fontawesome - https://fontawesome.com License - https://fontawesome.com/license (Commercial License) Copyright 2022 Fonticons, Inc. -->
<g clip-path="url(#clip0_5_2)">
<path d="M310.6 150.6C323.1 138.1 323.1 117.8 310.6 105.3C298.1 92.8 277.8 92.8 265.3 105.3L160 210.7L54.6 105.4C42.1 92.9 21.8 92.9 9.30005 105.4C-3.19995 117.9 -3.19995 138.2 9.30005 150.7L114.7 256L9.40005 361.4C-3.09995 373.9 -3.09995 394.2 9.40005 406.7C21.9 419.2 42.2001 419.2 54.7001 406.7L160 301.3L265.4 406.6C277.9 419.1 298.2 419.1 310.7 406.6C323.2 394.1 323.2 373.8 310.7 361.3L205.3 256L310.6 150.6Z" fill="#F5FFFd"/>
</g>
<defs>
<clipPath id="clip0_5_2">
<rect width="320" height="512" fill="white"/>
</clipPath>
</defs>
</svg>
